<?xml version="1.0" encoding="UTF-8"?>
<svg width="22px" height="20px" viewBox="0 0 22 20" version="1.1" xmlns="http://www.w3.org/2000/svg" xmlns:xlink="http://www.w3.org/1999/xlink">
    <!-- Generator: Sketch 46.2 (44496) - http://www.bohemiancoding.com/sketch -->
    <title>Combined Shape</title>
    <desc>Created with Sketch.</desc>
    <defs></defs>
    <g id="Symbols" stroke="none" stroke-width="1" fill="none" fill-rule="evenodd">
        <g id="Header" transform="translate(-313.000000, -15.000000)" fill="#fffff">
            <path d="M314.111111,32.7777778 L333.888889,32.7777778 L333.888889,32.7777778 C334.502539,32.7777778 335,33.2752392 335,33.8888889 C335,34.5025386 334.502539,35 333.888889,35 L314.111111,35 C313.497461,35 313,34.5025386 313,33.8888889 C313,33.2752392 313.497461,32.7777778 314.111111,32.7777778 L314.111111,32.7777778 Z M314.111111,23.8888889 L333.888889,23.8888889 L333.888889,23.8888889 C334.502539,23.8888889 335,24.3863503 335,25 C335,25.6136497 334.502539,26.1111111 333.888889,26.1111111 L314.111111,26.1111111 C313.497461,26.1111111 313,25.6136497 313,25 C313,24.3863503 313.497461,23.8888889 314.111111,23.8888889 L314.111111,23.8888889 Z M314.111111,15 L333.888889,15 L333.888889,15 C334.502539,15 335,15.4974614 335,16.1111111 L335,16.1111111 C335,16.7247608 334.502539,17.2222222 333.888889,17.2222222 L314.111111,17.2222222 C313.497461,17.2222222 313,16.7247608 313,16.1111111 L313,16.1111111 L313,16.1111111 C313,15.4974614 313.497461,15 314.111111,15 L314.111111,15 Z" id="Combined-Shape"></path>
        </g>
    </g>
</svg>