<?xml version="1.0" encoding="UTF-8"?>
<svg width="20px" height="20px" viewBox="0 0 20 20" version="1.1" xmlns="http://www.w3.org/2000/svg" xmlns:xlink="http://www.w3.org/1999/xlink">
    <!-- Generator: Sketch 46.2 (44496) - http://www.bohemiancoding.com/sketch -->
    <title>Fill 19</title>
    <desc>Created with Sketch.</desc>
    <defs></defs>
    <g id="Page-1" stroke="none" stroke-width="1" fill="none" fill-rule="evenodd">
        <g id="Home_Not_Personalised" transform="translate(-870.000000, -20.000000)" fill="#FFFFFE">
            <g id="Header" transform="translate(-37.000000, 0.000000)">
                <path d="M915.414669,35.2860269 C911.482406,35.2860269 908.294709,32.1537981 908.294709,28.2838387 C908.294709,24.4138793 911.482406,21.2753986 915.414669,21.2753986 C919.346933,21.2753986 922.535255,24.4138793 922.535255,28.2838387 C922.535255,32.1537981 919.346933,35.2860269 915.414669,35.2860269 L915.414669,35.2860269 Z M926.810107,38.9121601 L921.646901,33.8293217 C922.9985,32.3601125 923.829339,30.4220069 923.829339,28.2838387 C923.829339,23.7074086 920.062118,20 915.414669,20 C910.767221,20 907,23.7074086 907,28.2838387 C907,32.8540169 910.767221,36.5614254 915.414669,36.5614254 C917.422687,36.5614254 919.264412,35.8674586 920.711035,34.7108471 L925.894871,39.8124414 C926.148062,40.0625195 926.557542,40.0625195 926.810107,39.8124414 C927.063298,39.5686152 927.063298,39.1622382 926.810107,38.9121601 L926.810107,38.9121601 Z" id="Fill-19"></path>
            </g>
        </g>
    </g>
</svg>