<?xml version="1.0" encoding="UTF-8"?>
<svg width="20px" height="20px" viewBox="0 0 20 20" version="1.1" xmlns="http://www.w3.org/2000/svg" xmlns:xlink="http://www.w3.org/1999/xlink">
    <!-- Generator: Sketch 46.2 (44496) - http://www.bohemiancoding.com/sketch -->
    <title>Fill 167</title>
    <desc>Created with Sketch.</desc>
    <defs></defs>
    <g id="Page-1" stroke="none" stroke-width="1" fill="none" fill-rule="evenodd">
        <g id="Home_Not_Personalised" transform="translate(-927.000000, -20.000000)" fill="#FFFFFE">
            <g id="Header" transform="translate(-37.000000, 0.000000)">
                <path d="M980.875,20 L979.625,20 L979.625,21.25 L980.875,21.25 C981.910625,21.25 982.75,22.089375 982.75,23.125 L982.75,24.375 L984,24.375 L984,23.125 C984,21.39875 982.60125,20 980.875,20 L980.875,20 Z M974,37.5 C969.858125,37.5 966.5,34.1425 966.5,30 C966.5,25.858125 969.858125,22.5 974,22.5 C978.141875,22.5 981.5,25.858125 981.5,30 C981.5,34.1425 978.141875,37.5 974,37.5 L974,37.5 Z M982.75,30 C982.75,25.168125 978.8325,21.25 974,21.25 C969.1675,21.25 965.25,25.168125 965.25,30 C965.25,33.314375 967.093125,36.196875 969.81,37.681875 L967.75,40 L969.625,40 L971.303125,38.321875 C972.153125,38.5975 973.058125,38.75 974,38.75 C974.941875,38.75 975.846875,38.5975 976.696875,38.321875 L978.375,40 L980.25,40 L978.190625,37.681875 C980.906875,36.196875 982.75,33.314375 982.75,30 L982.75,30 Z M978.375,29.375 L974.625,29.375 L974.625,25 C974.625,24.654375 974.345625,24.375 974,24.375 C973.654375,24.375 973.375,24.654375 973.375,25 L973.375,30 C973.375,30.345625 973.654375,30.625 974,30.625 L978.375,30.625 C978.720625,30.625 979,30.345625 979,30 C979,29.655 978.720625,29.375 978.375,29.375 L978.375,29.375 Z M965.25,23.125 C965.25,22.089375 966.089375,21.25 967.125,21.25 L968.375,21.25 L968.375,20 L967.125,20 C965.39875,20 964,21.39875 964,23.125 L964,24.375 L965.25,24.375 L965.25,23.125 L965.25,23.125 Z" id="Fill-167"></path>
            </g>
        </g>
    </g>
</svg>