<?xml version="1.0" encoding="UTF-8" standalone="no"?>
<svg width="78px" height="75px" viewBox="0 0 78 75" version="1.1" xmlns="http://www.w3.org/2000/svg" xmlns:xlink="http://www.w3.org/1999/xlink">
    <!-- Generator: sketchtool 46.1 (44463) - http://www.bohemiancoding.com/sketch -->
    <title>9525E515-970E-45FC-AE60-F6DD46801E84</title>
    <desc>Created with sketchtool.</desc>
    <defs></defs>
    <g id="Screens:PC-View" stroke="none" stroke-width="1" fill="none" fill-rule="evenodd">
        <g id="00_Home_Not_Personalised" transform="translate(-122.000000, -1824.000000)">
            <g id="Airline_Data" transform="translate(-24.000000, 1705.000000)">
                <g id="1" transform="translate(61.000000, 43.000000)">
                    <g id="Lounge_icon" transform="translate(86.000000, 76.000000)">
                        <g id="if_10_171505" transform="translate(5.369395, 0.292298)" fill-rule="nonzero" fill="#29000C">
                            <path d="M17.6130389,11.1537306 C17.6130389,10.6817815 17.2436074,10.299455 16.788229,10.299455 L11.7408344,10.299455 L11.7408344,5.14646995 L11.7408344,5.14631104 C11.7408344,4.67277288 11.3650307,4.28869847 10.9021922,4.28869847 C10.4390429,4.28869847 10.0632393,4.67277288 10.0632393,5.14631104 L10.0632393,11.1503936 C10.0632393,11.6240906 10.4390429,12.008165 10.9021922,12.008165 L16.7886953,12.008165 C17.2436074,12.008165 17.6130389,11.6256797 17.6130389,11.1537306 M20.2556054,11.2115703 C20.2556054,16.4582783 16.0962515,20.7115703 10.9657454,20.7115703 C5.83492645,20.7115703 1.67588548,16.4582783 1.67588548,11.2115703 C1.67588548,5.96486234 5.83492645,1.71157032 10.9657454,1.71157032 C16.0962515,1.71157032 20.2556054,5.96486234 20.2556054,11.2115703 M21.8074928,11.1483278 C21.8074928,4.99121935 16.9257751,0 10.9039018,0 C4.88171779,0 0,4.99121935 0,11.1483278 C0,17.3054362 4.88171779,22.2966556 10.9039018,22.2966556 C16.9257751,22.2966556 21.8074928,17.3054362 21.8074928,11.1483278" id="Shape"></path>
                        </g>
                        <path d="M38.6055913,45.1975925 L60.7432605,43.7523104 L70.7228745,19.5899959 L70.7350029,19.5937701 C71.0474398,18.3629146 72.1414211,17.4540836 73.4430144,17.4540836 C74.9880564,17.4540836 76.2405604,18.7346824 76.2405604,20.3143812 C76.2405604,20.7014734 76.1653532,21.070606 76.0290635,21.4073375 L67.7234656,47.8223997 L66.260561,69.292161 C66.2823984,69.4361608 66.2937302,69.5837113 66.2937302,69.7339679 C66.2937302,71.3136666 65.0412262,72.5942655 63.4961842,72.5942655 C61.9972477,72.5942655 60.7736505,71.3889549 60.7019586,69.8745619 L33.7693679,69.8745619 C33.7968071,70.0353563 33.8111126,70.2007648 33.8111126,70.3695896 C33.8111126,71.9492883 32.5586086,73.2298872 31.0135666,73.2298872 C29.4685246,73.2298872 28.2160206,71.9492883 28.2160206,70.3695896 C28.2160206,69.9648762 28.2982308,69.5797947 28.4465085,69.2308499 L32.7347598,50.33697 C32.918384,47.4553827 35.262539,45.176252 38.1273351,45.176252 C38.2884989,45.176252 38.448015,45.183465 38.6055913,45.1975925 Z" id="Combined-Shape" stroke="#29000C"></path>
                        <path d="M46.35909,42.0757341 L59.0561119,41.260723 C59.3287027,40.3623281 59.7940497,39.1056717 60.452153,37.4907539 C62.9734656,30.4011512 55.8436087,24.04121 50.4291309,32.9318443 C48.8632012,36.0081539 47.5065209,39.0561172 46.35909,42.0757341 Z" id="Path-6" stroke="#29000C"></path>
                        <path d="M58.0134068,27.0268939 C61.1779486,27.3316695 63.8048977,24.2957069 65.0695002,20.5980522 C65.6067893,16.4587521 62.9095383,13.9581643 60.0769613,13.9581643 C57.2443843,13.9581643 54.1315689,14.7328282 53.9142248,20.4804249 C54.2885059,24.2308412 55.7030636,26.8757475 58.0134068,27.0268939 Z" id="Oval-4" stroke="#29000C"></path>
                        <path d="M19.2691304,72.1601242 L19.2991462,72.1825701 L28.0108186,59.7873264 L30.8619418,47.3920826 C28.4708534,47.2322461 26.6156882,48.318255 25.2964462,50.6501093 C23.9772041,52.9819637 20.4563921,59.0215077 14.7340101,68.7687416 L14.7712591,68.7965966 C14.3365813,69.3006752 14.0728713,69.9625507 14.0728713,70.6874004 C14.0728713,72.2670992 15.3253753,73.547698 16.8704173,73.547698 C17.8886208,73.547698 18.7797754,72.9915356 19.2691304,72.1601242 Z" id="Combined-Shape" stroke="#29000C"></path>
                        <path d="M1.4775396,48.1228139 C0.793787096,48.1193046 0.240560436,47.5515014 0.240560436,46.8515869 C0.240560436,46.1494986 0.797228886,45.5803435 1.48391422,45.5803435 C1.5767107,45.5803435 1.66713281,45.5907374 1.75412765,45.6104487 L26.5920111,45.6104487 L23.768056,48.1855235 L16.2985231,48.1855235 L16.2985231,61.0553109 L13.5094766,65.2610285 L13.1439986,48.1855235 L1.4775396,48.1855235 L1.4775396,48.1228162 Z" id="Combined-Shape" stroke="#29000C"></path>
                        <path d="M7.27646758,70.8033207 L11.5365328,70.8033207 L12.3224319,73.4637451 L7.27646758,73.4637451 C6.33132949,73.3753177 5.85888693,72.9319137 5.85913989,72.1335329 C5.85939285,71.3351521 6.33183541,70.891748 7.27646758,70.8033207 Z" id="Combined-Shape" stroke="#29000C"></path>
                    </g>
                </g>
            </g>
        </g>
    </g>
</svg>