<?xml version="1.0" encoding="UTF-8"?>
<svg width="22px" height="20px" viewBox="0 0 22 20" version="1.1" xmlns="http://www.w3.org/2000/svg" xmlns:xlink="http://www.w3.org/1999/xlink">
    <!-- Generator: Sketch 46.2 (44496) - http://www.bohemiancoding.com/sketch -->
    <title>menu</title>
    <desc>Created with Sketch.</desc>
    <defs></defs>
    <g id="Symbols" stroke="none" stroke-width="1" fill="none" fill-rule="evenodd">
        <g id="Header" transform="translate(-313.000000, -15.000000)" fill="#FFFFFF">
            <g id="menu" transform="translate(313.000000, 15.000000)">
                <path d="M1.11111111,17.7777778 L20.8888889,17.7777778 L20.8888889,17.7777778 C21.5025386,17.7777778 22,18.2752392 22,18.8888889 C22,19.5025386 21.5025386,20 20.8888889,20 L1.11111111,20 C0.497461389,20 7.51504168e-17,19.5025386 0,18.8888889 C-7.51504168e-17,18.2752392 0.497461389,17.7777778 1.11111111,17.7777778 L1.11111111,17.7777778 Z M1.11111111,8.88888889 L20.8888889,8.88888889 L20.8888889,8.88888889 C21.5025386,8.88888889 22,9.38635028 22,10 C22,10.6136497 21.5025386,11.1111111 20.8888889,11.1111111 L1.11111111,11.1111111 C0.497461389,11.1111111 7.51504168e-17,10.6136497 0,10 C-7.51504168e-17,9.38635028 0.497461389,8.88888889 1.11111111,8.88888889 L1.11111111,8.88888889 Z M1.11111111,0 L20.8888889,0 L20.8888889,7.54951657e-15 C21.5025386,3.62157786e-15 22,0.497461389 22,1.11111111 L22,1.11111111 C22,1.72476083 21.5025386,2.22222222 20.8888889,2.22222222 L1.11111111,2.22222222 C0.497461389,2.22222222 7.51504168e-17,1.72476083 0,1.11111111 L0,1.11111111 L0,1.11111111 C-7.51504168e-17,0.497461389 0.497461389,1.12725625e-16 1.11111111,0 L1.11111111,0 Z" id="Combined-Shape"></path>
            </g>
        </g>
    </g>
</svg>