<svg xmlns="http://www.w3.org/2000/svg" width="35" height="70" viewBox="0 0 35 70">
    <g fill="#29000C" fill-rule="nonzero">
        <path d="M32.222 0H2.778A2.75 2.75 0 0 0 0 2.778v64.444A2.75 2.75 0 0 0 2.778 70h29.444A2.75 2.75 0 0 0 35 67.222V2.778A2.75 2.75 0 0 0 32.222 0zm1.667 67.222c0 .945-.722 1.667-1.667 1.667H2.778a1.637 1.637 0 0 1-1.667-1.667V60H33.89v7.222zm0-8.333H1.11V11.11H33.89V58.89zm0-48.889H1.11V2.778c0-.945.722-1.667 1.667-1.667h29.444c.945 0 1.667.722 1.667 1.667V10z"/>
        <path d="M22.222 5h-10c-.333 0-.555.222-.555.556 0 .333.222.555.555.555h10c.334 0 .556-.222.556-.555 0-.334-.222-.556-.556-.556zM17.222 67.778c1.834 0 3.334-1.5 3.334-3.334 0-1.833-1.5-3.333-3.334-3.333a3.343 3.343 0 0 0-3.333 3.333c0 1.834 1.5 3.334 3.333 3.334zm0-5.556c1.222 0 2.222 1 2.222 2.222 0 1.223-1 2.223-2.222 2.223S15 65.667 15 64.444c0-1.222 1-2.222 2.222-2.222z"/>
    </g>
</svg>
