<?xml version="1.0" encoding="UTF-8"?>
<svg width="25px" height="25px" viewBox="0 0 25 25" version="1.1" xmlns="http://www.w3.org/2000/svg" xmlns:xlink="http://www.w3.org/1999/xlink">
    <!-- Generator: Sketch 45.2 (43514) - http://www.bohemiancoding.com/sketch -->
    <title>Subscribe</title>
    <desc>Created with Sketch.</desc>
    <defs></defs>
    <g id="Page-1" stroke="none" stroke-width="1" fill="none" fill-rule="evenodd">
        <g id="Home_Not_Personalised" transform="translate(-949.000000, -3061.000000)">
            <g id="Footer" transform="translate(0.000000, 2939.000000)">
                <g id="Social-Icons" transform="translate(769.000000, 122.000000)">
                    <g id="Subscribe" transform="translate(180.000000, 0.000000)">
                        <path d="M24.9695588,23.4090196 C24.9695588,24.2698529 24.2698039,24.9696078 23.4089706,24.9696078 L1.56058824,24.9696078 C0.699803922,24.9696078 0,24.2698529 0,23.4090196 L0,1.56058824 C0,0.699803922 0.699803922,0 1.56058824,0 L23.4089706,0 C24.2698039,0 24.9695588,0.699803922 24.9695588,1.56058824 L24.9695588,23.4090196 Z" id="Shape" fill="#E2DDD5" fill-rule="nonzero"></path>
                        <g id="if_rss_279396" transform="translate(4.000000, 3.000000)" fill="#29000C">
                            <path d="M13.6920663,16.3854835 C13.6920663,9.49822143 8.09763168,3.89538642 1.22218343,3.89538642 C0.990726375,3.89538642 0.804067418,3.70869675 0.804067418,3.47720103 L0.804067418,0.417618029 C0.804067418,0.187189072 0.990726375,0.000498766361 1.22218343,0.000498766361 C10.2543422,0.000498766361 17.600171,7.35075273 17.600171,16.3854835 C17.600171,16.6169792 17.413512,16.8036692 17.1831213,16.8036692 L14.1101825,16.8036692 C13.8787253,16.8036692 13.6920663,16.6169792 13.6920663,16.3854835 Z M8.26615801,16.3822831 C8.26615801,14.491913 7.53125533,12.7178243 6.20011022,11.3843243 C4.86896575,10.0529572 3.1015724,9.32113265 1.21685034,9.32113265 C0.985393279,9.32113265 0.798734322,9.13444234 0.798734322,8.90294662 L0.798734322,5.84229686 C0.798734322,5.6118679 0.985393279,5.42517824 1.21685034,5.42517824 C7.25926638,5.42517824 12.1721293,10.3399267 12.1721293,16.3822831 C12.1721293,16.6137787 11.9854702,16.8004688 11.7550801,16.8004688 L8.68427422,16.8004688 C8.45281704,16.8004688 8.26615801,16.6137787 8.26615801,16.3822831 Z" id="path3461"></path>
                            <path d="M0.799800954,14.4023022 C0.799800954,13.0720019 1.8856226,11.9998677 3.21783421,11.9998677 C4.5511122,11.9998677 5.63480032,13.0730686 5.63480032,14.4023022 C5.63480032,15.7326018 4.5511122,16.8068696 3.21783421,16.8068696 C1.88668923,16.8068696 0.799800954,15.7326018 0.799800954,14.4023022 Z" id="path3463"></path>
                        </g>
                    </g>
                </g>
            </g>
        </g>
    </g>
</svg>