<?xml version="1.0" encoding="UTF-8"?>
<svg width="25px" height="25px" viewBox="0 0 25 25" version="1.1" xmlns="http://www.w3.org/2000/svg" xmlns:xlink="http://www.w3.org/1999/xlink">
    <!-- Generator: Sketch 45.2 (43514) - http://www.bohemiancoding.com/sketch -->
    <title>Twitter</title>
    <desc>Created with Sketch.</desc>
    <defs></defs>
    <g id="Page-1" stroke="none" stroke-width="1" fill="none" fill-rule="evenodd">
        <g id="Home_Not_Personalised" transform="translate(-814.000000, -3061.000000)" fill-rule="nonzero" fill="#E2DDD5">
            <g id="Footer" transform="translate(0.000000, 2939.000000)">
                <g id="Social-Icons" transform="translate(769.000000, 122.000000)">
                    <g id="Twitter" transform="translate(45.000000, 0.000000)">
                        <path d="M0,22.916767 C0,24.0677618 0.932352827,25 2.08323301,25 L22.916767,25 C24.0677618,25 25,24.0677618 25,22.916767 L25,2.08323301 C25,0.9322955 24.0677618,3.33066907e-16 22.916767,3.33066907e-16 L2.08329034,3.33066907e-16 C0.932352827,3.33066907e-16 5.73261699e-05,0.932352827 5.73261699e-05,2.08323301 L5.73261699e-05,22.916767 L0,22.916767 Z M11.1695536,16.5178571 L16.8214286,16.5178571 C17.8659821,16.5178571 18.7142857,17.375 18.7142857,18.4196429 C18.7142857,19.4732143 17.8659821,20.3125 16.8214286,20.3125 L11.1695536,20.3125 C8.32133929,20.3125 6,18 6,15.1428571 L6,5.90169643 C6,4.84821429 6.84821429,4 7.89285714,4 C8.94633929,4 9.79464286,4.84821429 9.79464286,5.90169643 L9.79464286,8.15178571 L16.8214286,8.15178571 C17.8659821,8.15178571 18.7142857,9 18.7142857,10.0446429 C18.7142857,11.0982143 17.8659821,11.9464286 16.8214286,11.9464286 L9.79464286,11.9464286 L9.79464286,15.1428571 C9.79464286,15.9017857 10.4107143,16.5178571 11.1695536,16.5178571 Z" id="Shape"></path>
                    </g>
                </g>
            </g>
        </g>
    </g>
</svg>