<?xml version="1.0" encoding="UTF-8"?>
<svg width="25px" height="25px" viewBox="0 0 25 25" version="1.1" xmlns="http://www.w3.org/2000/svg" xmlns:xlink="http://www.w3.org/1999/xlink">
    <!-- Generator: Sketch 45.2 (43514) - http://www.bohemiancoding.com/sketch -->
    <title>Youtube</title>
    <desc>Created with Sketch.</desc>
    <defs></defs>
    <g id="Page-1" stroke="none" stroke-width="1" fill="none" fill-rule="evenodd">
        <g id="Home_Not_Personalised" transform="translate(-859.000000, -3061.000000)">
            <g id="Footer" transform="translate(0.000000, 2939.000000)">
                <g id="Social-Icons" transform="translate(769.000000, 122.000000)">
                    <g id="Youtube" transform="translate(90.000000, 0.000000)">
                        <path d="M0,22.916767 C0,24.0677618 0.932352827,25 2.08323301,25 L22.916767,25 C24.0677618,25 25,24.0677618 25,22.916767 L25,2.08323301 C25,0.9322955 24.0677618,0 22.916767,0 L2.08329034,0 C0.932352827,0 5.73261699e-05,0.932352827 5.73261699e-05,2.08323301 L5.73261699e-05,22.916767 L0,22.916767 Z" id="Path" fill="#E2DDD5"></path>
                        <path d="M5.431,2 L6.751,2 L7.65666667,5.3935 L8.49633333,2 L9.82916667,2 L8.30291667,7.04625 L8.30291667,10.4901667 L6.99116667,10.4901667 L6.99116667,7.04625 L5.431,2 Z M11.4755,4.17525 C10.44975,4.17525 9.76958333,4.85358333 9.76958333,5.85733333 L9.76958333,8.92725 C9.76958333,10.0309167 10.3461667,10.6056667 11.4755,10.6056667 C12.4123333,10.6056667 13.1493333,9.97958333 13.1493333,8.92725 L13.1493333,5.85733333 C13.1493333,4.87741667 12.41875,4.17525 11.4755,4.17525 Z M11.96225,8.875 C11.96225,9.216 11.7880833,9.46716667 11.4745833,9.46716667 C11.1528333,9.46716667 10.96675,9.20408333 10.96675,8.875 L10.96675,5.96091667 C10.96675,5.61808333 11.1244167,5.36416667 11.4516667,5.36416667 C11.8091667,5.36416667 11.96225,5.61075 11.96225,5.96091667 L11.96225,8.875 L11.96225,8.875 Z M16.2971667,4.2275 L16.2971667,8.98133333 C16.1550833,9.15916667 15.8388333,9.45066667 15.6124167,9.45066667 C15.364,9.45066667 15.3025833,9.28016667 15.3025833,9.029 L15.3025833,4.2275 L14.1384167,4.2275 L14.1384167,9.46166667 C14.1384167,10.0804167 14.32725,10.58 14.9515,10.58 C15.3035,10.58 15.793,10.3966667 16.2971667,9.79808333 L16.2971667,10.48925 L17.4613333,10.48925 L17.4613333,4.2275 L16.2971667,4.2275 Z M18.3165833,16.9306667 C17.9059167,16.9306667 17.8206667,17.2194167 17.8206667,17.6300833 L17.8206667,18.2341667 L18.8005833,18.2341667 L18.8005833,17.6291667 C18.8015,17.2258333 18.71625,16.9306667 18.3165833,16.9306667 Z M14.0055,16.9673333 C13.9285,17.00675 13.8524167,17.06725 13.7763333,17.1488333 L13.7763333,20.8659167 C13.8670833,20.9630833 13.9541667,21.03275 14.0394167,21.0758333 C14.22,21.1675 14.484,21.1739167 14.6068333,21.0144167 C14.671,20.9300833 14.7030833,20.7935 14.7030833,20.6028333 L14.7030833,17.52375 C14.7030833,17.3220833 14.6636667,17.1699167 14.5848333,17.0654167 C14.4500833,16.8885 14.1998333,16.86925 14.0055,16.9673333 L14.0055,16.9673333 Z M18.43025,12.20525 C16.04325,12.043 8.28641667,12.043 5.90308333,12.20525 C3.32358333,12.38125 3.01925,13.9395833 3,18.0416667 C3.01925,22.1364167 3.32083333,23.7020833 5.90308333,23.8780833 C8.28641667,24.0403333 16.04325,24.0403333 18.43025,23.8780833 C21.00975,23.7020833 21.3140833,22.1428333 21.3333333,18.0416667 C21.3140833,13.9469167 21.0125,12.38125 18.43025,12.20525 Z M7.13325,22.00075 L5.88383333,22.00075 L5.88383333,15.0890833 L4.59133333,15.0890833 L4.59133333,13.91575 L8.42483333,13.91575 L8.42483333,15.0890833 L7.13233333,15.0890833 L7.13233333,22.00075 L7.13325,22.00075 Z M11.5754167,22.00075 L10.46625,22.00075 L10.46625,21.3425833 C10.2618333,21.5855 10.0491667,21.7706667 9.82825,21.8971667 C9.23058333,22.24 8.41016667,22.23175 8.41016667,21.02175 L8.41016667,16.0369167 L9.51841667,16.0369167 L9.51841667,20.60925 C9.51841667,20.8494167 9.57616667,21.01075 9.81358333,21.01075 C10.0299167,21.01075 10.3305833,20.733 10.4653333,20.5643333 L10.4653333,16.0369167 L11.5745,16.0369167 L11.5745,22.00075 L11.5754167,22.00075 Z M15.8443333,20.7650833 C15.8443333,21.503 15.5684167,22.0768333 14.8305,22.0768333 C14.4244167,22.0768333 14.0861667,21.9283333 13.77725,21.5424167 L13.77725,22.00075 L12.658,22.00075 L12.658,13.91575 L13.77725,13.91575 L13.77725,16.5190833 C14.0275,16.2138333 14.3675833,15.96175 14.7635833,15.96175 C15.57575,15.96175 15.84525,16.6483333 15.84525,17.4568333 L15.84525,20.7650833 L15.8443333,20.7650833 Z M19.94275,19.1590833 L17.8215833,19.1590833 L17.8215833,20.28475 C17.8215833,20.7320833 17.8600833,21.1189167 18.3055833,21.1189167 C18.774,21.1189167 18.8015,20.8035833 18.8015,20.28475 L18.8015,19.8704167 L19.94275,19.8704167 L19.94275,20.3186667 C19.94275,21.46725 19.4495833,22.1639167 18.2808333,22.1639167 C17.2220833,22.1639167 16.6803333,21.3920833 16.6803333,20.3186667 L16.6803333,17.6410833 C16.6803333,16.6061667 17.3641667,15.8865833 18.36425,15.8865833 C19.4285,15.8865833 19.9418333,16.5630833 19.9418333,17.6410833 L19.9418333,19.1590833 L19.94275,19.1590833 Z" id="Shape" fill="#29000C" fill-rule="nonzero"></path>
                    </g>
                </g>
            </g>
        </g>
    </g>
</svg>